<svg xmlns="http://www.w3.org/2000/svg" viewBox="0 0 32 32">
  <!-- Background -->
  <rect width="32" height="32" fill="#000000"/>

  <!-- Sequencer grid pattern with retro phosphor glow -->
  <defs>
    <filter id="glow">
      <feGaussianBlur stdDeviation="0.8" result="coloredBlur"/>
      <feMerge>
        <feMergeNode in="coloredBlur"/>
        <feMergeNode in="SourceGraphic"/>
      </feMerge>
    </filter>
  </defs>

  <!-- Circular "Cyclone" pattern made of sequencer steps -->
  <g filter="url(#glow)">
    <!-- Outer ring of steps (representing the cyclone/circular motion) -->
    <rect x="14" y="4" width="4" height="3" fill="#00ff88" opacity="1.0"/>
    <rect x="20" y="6" width="4" height="3" fill="#00ff88" opacity="0.9"/>
    <rect x="24" y="11" width="3" height="4" fill="#00ff88" opacity="0.8"/>
    <rect x="25" y="17" width="3" height="4" fill="#00ff88" opacity="0.7"/>
    <rect x="23" y="23" width="4" height="3" fill="#00ff88" opacity="0.6"/>
    <rect x="18" y="26" width="4" height="3" fill="#00ff88" opacity="0.5"/>
    <rect x="12" y="26" width="4" height="3" fill="#00ff88" opacity="0.6"/>
    <rect x="7" y="24" width="4" height="3" fill="#00ff88" opacity="0.7"/>
    <rect x="4" y="19" width="3" height="4" fill="#00ff88" opacity="0.8"/>
    <rect x="4" y="13" width="3" height="4" fill="#00ff88" opacity="0.9"/>
    <rect x="6" y="8" width="4" height="3" fill="#00ff88" opacity="1.0"/>
    <rect x="10" y="5" width="4" height="3" fill="#00ff88" opacity="1.0"/>

    <!-- Center accent - stylized "C" made from grid squares -->
    <rect x="13" y="13" width="2" height="2" fill="#00ff88" opacity="1.0"/>
    <rect x="13" y="16" width="2" height="2" fill="#00ff88" opacity="1.0"/>
    <rect x="15" y="13" width="2" height="2" fill="#00ff88" opacity="0.8"/>
    <rect x="15" y="16" width="2" height="2" fill="#00ff88" opacity="0.8"/>
  </g>

  <!-- Scanline effect for extra retro feel -->
  <rect x="0" y="8" width="32" height="1" fill="#00ff88" opacity="0.05"/>
  <rect x="0" y="16" width="32" height="1" fill="#00ff88" opacity="0.05"/>
  <rect x="0" y="24" width="32" height="1" fill="#00ff88" opacity="0.05"/>
</svg>
